<svg width="32" height="32" viewBox="0 0 32 32" fill="none" xmlns="http://www.w3.org/2000/svg">
<rect width="32" height="32" fill="#2CB5E7"/>
<path d="M5 8.47788L7.33628 10.8385C9.6969 8.59956 12.8119 7.38274 16.0487 7.38274C19.2854 7.38274 22.4004 8.64823 24.7367 10.9115L27 8.47788C24.0553 5.60619 20.1128 4 16 4C11.8872 4 7.94469 5.60619 5 8.47788Z" fill="white"/>
<path d="M9.40494 15.8236C10.062 14.6554 11.0111 13.6576 12.1549 12.9519C14.4669 11.516 17.3872 11.516 19.6992 12.9519C20.843 13.6576 21.7921 14.6554 22.4735 15.8236C23.4956 17.6001 23.7877 19.7174 23.2523 21.7129C22.7412 23.7085 21.4757 25.4121 19.6992 26.4585C17.3872 27.8457 14.4669 27.87 12.1549 26.4585C11.0111 25.7771 10.062 24.8037 9.40494 23.6355C8.0421 21.2019 8.0421 18.2329 9.40494 15.7992V15.8236ZM11.5222 22.4674C11.9602 23.2705 12.6173 23.9519 13.3961 24.4386C14.1748 24.9253 15.0753 25.193 16.0001 25.1687C16.9005 25.1687 17.801 24.9253 18.5554 24.4386C19.3341 23.9519 19.9669 23.2705 20.3806 22.4674C21.281 20.7395 21.281 18.6952 20.3806 16.9674C19.9425 16.1399 19.3098 15.4585 18.5067 14.9718C16.9248 13.9983 14.9293 13.9983 13.3474 14.9718C12.5687 15.4585 11.9359 16.1643 11.4979 16.9674C11.0355 17.8191 10.8164 18.7683 10.8164 19.7174C10.8164 20.6665 11.0355 21.6156 11.4979 22.443L11.5222 22.4674Z" fill="white"/>
</svg>
